<?xml version="1.0" encoding="utf-8"?>
<!DOCTYPE svg PUBLIC "-//W3C//DTD SVG 1.1//EN" "http://www.w3.org/Graphics/SVG/1.1/DTD/svg11.dtd">
<svg version="1.1" id="Layer_1" xmlns="http://www.w3.org/2000/svg" xmlns:xlink="http://www.w3.org/1999/xlink" x="0px" y="0px"
	 viewBox="0 0 3709 1056" enable-background="new 0 0 3709 1056" xml:space="preserve">
<g>
	<path d="M3385.0728,658.6114c-8.3193,6.3948-15.9285,13.8554-21.2988,23.0902c-4.2253,7.2662-8.908,14.0873-14.6472,20.1263
		c-2.7375,2.8804-3.8101,5.9264-4.1494,9.7544c-1.0303,11.6315-2.7463,23.0828-7.8147,33.8782
		c-2.8335,6.0339-3.7141,12.7593-4.2495,19.4419c-2.2722,28.3639-8.2773,56.095-16.6189,83.1407
		c-3.6755,11.9172-5.3013,23.6619-7.042,35.8344c-3.5254,24.6524-7.9353,49.3508-17.447,72.6697
		c-2.2917,5.619-3.5801,11.4221-4.2881,17.4006c-0.4744,4.0046-2.6477,5.0049-6.2847,3.6248
		c-3.3933-1.2875-6.8604-4.8109-10.1516,0.3729c-0.4751,0.7489-1.9951,0.1327-2.0742-0.9925
		c-0.5725-8.1235-7.9331-6.6613-12.5857-8.8489c-5.4646-2.5693-10.7893-1.864-16.1836,1.1013
		c-22.3865,12.3059-45.5264,10.6032-68.6497,2.6368c-8.4412-2.908-16.5083-7.0342-22.1758-14.3648
		c1.5081-3.0005,4.0378-2.369,6.2659-2.494c7.6499-0.4292,15.3079-0.7316,22.9514-1.2516
		c11.4875-0.7816,21.1938-4.3099,26.2393-16.0237c2.5059-5.817,6.5432-10.5614,11.8428-14.5197
		c5.4858-4.0977,7.7046-10.532,9.2231-17.2368c10.083-44.52,22.4014-88.4496,35.1064-132.2792
		c3.8789-13.3823,10.3884-26.0616,10.9961-40.3405c0.0425-0.9943,0.4106-1.9854,0.3816-2.9706
		c-1.0576-35.7435,12.8618-68.3781,21.2124-102.1652c0.5554-2.2481,1.7083-4.357,1.3359-7.2073
		c-4.9795-2.5886-10.0657,2.3024-15.918,0.178c0.7522-7.2143,3.8057-13.7983,6.3376-20.4337
		c4.3838-11.4899,10.8777-22.1093,14.1741-34.0774c0.5183-1.8817,1.6025-3.689,2.7456-5.3039
		c7.1052-10.0379,13.8325-20.3948,21.5955-29.9024c8.4829-10.3889,11.6101-23.0975,16.6892-34.9359
		c1.9624-4.573,0.5996-9.771-2.0364-14.4022c-6.8962-12.1162-13.0686-24.5409-18.5774-37.4185
		c-6.0593-14.1641-15.5251-26.2911-29.8674-33.5535c-1.771-0.8967-3.655-2.1756-5.5066-2.2101
		c-12.1248-0.2255-19.6782-9.077-28.6399-15.0947c-5.3623-3.6009-5.8857-10.2654-7.3672-15.9796
		c-1.2473-4.8118-3.5115-7.0886-8.6643-7.7253c-25.7971-3.1878-51.186-8.9491-76.8677-12.781
		c-18.4297-2.7499-36.9299-4.7418-55.2031-8.7114c-8.988-1.9525-18.5342-0.052-27.8188-1.8592
		c-28.2151-5.4917-55.3831-14.5326-82.5618-23.5866c-3.738-1.2452-7.4719-2.5028-11.5139-3.8572
		c-2.1313,4.103-1.1963,7.7831-1.093,11.2491c0.7158,23.9786,1.6104,47.9518,2.4114,71.928
		c0.4966,14.8635-1.3171,29.2563-8.8115,42.4763c-2.1506,3.7942-4.519,7.478-7.7817,10.3473
		c-8.2581,7.2629-17.3972,10.4569-28.5366,6.7843c-10.5481-3.4777-18.8228-9.9183-25.8806-18.064
		c-7.4148-8.5577-14.5784-17.3469-21.5613-26.2623c-16.2041-20.6879-37.4741-28.9696-63.3259-26.4823
		c-3.646,0.3508-7.3162,0.4544-10.9753,0.662c-26.5039,1.5043-46.8037,13.9593-61.8784,35.3645
		c-15.7419,22.352-23.0076,47.9004-27.0034,74.4826c-6.8508,45.5781-3.9265,90.4793,11.6353,134.0624
		c10.3401,28.9593,25.2935,55.1255,50.5132,74.0506c15.8718,11.9103,34.0522,18.386,53.616,20.0065
		c23.9561,1.9843,42.8359-7.8177,56.1465-27.7619c5.5388-8.2995,10.3477-17.0947,15.3125-25.7653
		c2.6819-4.6834,5.9739-8.8581,9.8132-12.561c8.0166-7.7318,17.604-8.4723,26.1123-1.4342
		c11.3574,9.3953,19.2776,20.7061,20.6108,36.2397c2.4546,28.5946,2.7095,57.1782,2.2578,85.8495
		c-0.5249,33.3222-1.7915,66.6073-3.4055,99.8803c-1.5012,30.945-3.5322,61.8644-5.355,92.7936
		c-0.196,3.3246-0.6931,6.6348-0.8081,9.9601c-0.1392,4.0321-1.7537,6.1957-6.0786,5.8739
		c-2.3198-0.1727-4.6641-0.0091-6.9973-0.009c-306.6611,0.0008-613.3223,0.009-919.9834-0.0231
		c-16.5898-0.0017-14.781,1.6392-13.676-14.3641c4.1541-60.1639,7.1631-120.3831,8.9126-180.6586
		c0.9858-33.9666,1.2344-67.9292-2.6465-101.817c-1.6963-14.8109-9.8804-25.2113-20.6465-34.0258
		c-8.2239-6.733-17.5288-5.8784-25.3372,1.4002c-6.6831,6.2299-10.9851,14.1473-15.4263,21.9916
		c-6.396,11.2971-12.5596,22.7388-22.9768,31.1672c-14.6938,11.8888-31.3137,15.4493-49.689,12.5379
		c-39.0615-6.1891-65.3801-29.4296-83.9824-62.8602c-13.7776-24.7598-21.745-51.5018-25.746-79.4158
		c-5.9956-41.8284-3.442-83.1382,9.5853-123.4517c6.7412-20.8613,17.0778-39.8055,34.3851-54.0917
		c9.6591-7.9731,20.5201-13.5868,32.985-15.7007c13.8425-2.3475,27.7375-3.216,41.7861-2.005
		c13.8931,1.1975,25.5352,6.8505,35.5767,16.3326c8.7708,8.2824,15.9084,17.9415,23.4045,27.296
		c5.6443,7.0439,11.3296,14.1237,18.7617,19.2803c11.0356,7.6571,22.8538,13.2267,36.2019,5.6147
		c9.3389-5.3257,16.2935-12.6429,16.2771-24.4438c-0.1072-77.6634,0.1809-155.3297-0.449-232.9888
		c-0.2891-35.6296-2.3843-71.2441-3.6208-106.8668c-0.3289-9.4822-0.2637-9.5255,9.6755-9.8855
		c43.2813-1.5677,86.5667-3.0141,129.844-4.6823c71.553-2.7581,143.0989-5.7123,214.6528-8.4429
		c15.2104-0.5805,29.8567,2.0973,43.3376,9.625c13.1284,7.3308,20.356,21.0881,16.8206,33.1085
		c-2.1602,7.3445-5.4885,14.2535-10.5398,20.2423c-7.3799,8.7496-16.864,15.054-25.4583,22.3919
		c-5.0635,4.3234-10.2385,8.5195-15.2197,12.9349c-11.6995,10.3703-18.5955,23.3038-20.4041,38.8931
		c-2.0251,17.4531-0.6519,34.7861,4.5339,51.4132c6.5796,21.0948,21.6653,35.4644,40.4819,46.2485
		c17.2649,9.8947,35.9541,15.7696,55.3765,19.3681c49.4329,9.1586,98.2668,6.9547,145.8838-9.7312
		c29.3201-10.2743,55.6345-25.4494,75.0232-50.8372c12.6257-16.5324,18.5161-35.541,19.8445-55.6489
		c1.292-19.558-5.7639-36.5431-21.5891-49.2309c-7.592-6.0869-15.9392-10.8943-24.4409-15.4889
		c-7.655-4.1371-15.0107-8.6756-21.0471-15.0518c-7.5408-7.9657-8.1536-16.837-1.0566-25.0867
		c9.5508-11.1029,20.5596-19.4019,36.1807-20.7939c25.2625-2.2512,50.5432-3.3855,75.8569-2.784
		c35.6318,0.8468,71.2615,2.069,106.8652,3.7112c34.6089,1.5964,69.1853,3.8977,103.7722,5.9529
		c7.7937,0.4631,7.8296,0.5821,8.2122,9.0202c1.1772,25.9705,2.3062,51.9431,3.4839,77.9135
		c0.2144,4.7218-0.1799,8.4535,5.9858,11.6443c6.3179,3.2694,10.373,11.0025,10.5974,19.2308
		c0.1633,5.9906,0.1697,11.9881,0.1196,17.9815c-0.0928,11.0828-2.1895,9.9211,10.4697,14.1823
		c12.5137,4.2122,25.5295,4.7424,38.4609,5.6199c23.2778,1.5797,46.582,2.5909,69.9409,1.8049
		c13.0217-0.4382,25.7876,0.8617,38.4514,4.7996c25.5588,7.9476,51.3254,6.046,76.9321-0.4344
		c0.4717-0.1194,0.7766-0.8977,1.1592-1.3699c-0.2798-0.5452-0.5305-1.5468-0.8433-1.5666
		c-10.8137-0.6858-19.5232-5.8248-27.6746-12.5007c-6.1436-5.0316-12.4438-9.4345-20.7925-11.1131
		c-6.7717-1.3614-12.3845-6.6492-16.9707-11.784c-8.7959-9.8474-18.0493-19.7264-17.4277-34.5326
		c0.3401-8.1017,2.2239-12.4777,10.918-23.366c0.7498-0.939,0.7832-2.4907,1.033-3.7803c0.7605-3.9224,1.3538-7.8801,2.2144-11.7795
		c1.3098-5.9355,2.4241-11.6166,11.1196-10.5303c4.3843,0.5477,7.6973-3.4615,10.8086-6.5139
		c3.561-3.4931,6.6829-7.4937,11.1064-9.9992c1.6699-0.9457,3.7209-2.2133,4.4644,1.0845c0.9656,4.2858,3.9863,4.1426,6.8984,2.7536
		c6.0601-2.8905,10.0012-0.7143,12.3086,4.9692c1.1917-0.585,2.1199-0.7344,2.2698-1.1588
		c3.8247-10.8314,3.7537-10.6503,14.9399-7.2408c9.553,2.9116,19.2615,5.3103,28.8889,7.9803
		c2.5356,0.7032,5.3137,0.8585,7.3315,2.9518c-0.8606,2.0257-5.3774,2.8358-1.3596,6.4355
		c11.2271,10.0597,8.6985,24.4913,11.1882,37.3194c-5.2959,7.5776-3.116,15.8957-2.4946,24.0926
		c0.0916,1.2067-0.5081,2.6741-1.2378,3.7013c-5.2458,7.3832-4.5989,15.8771-4.3572,24.1452
		c0.3394,11.5932,11.7903,21.366,22.9045,19.0498c7.0386-1.4668,12.5896,0.4455,17.5811,4.5904
		c9.4597,7.8561,18.2678,16.3766,26.9465,25.1561c9.9387,10.0546,17.5137,21.7458,26.0178,32.6859
		c9.1072,11.716,17.7249,24.0885,24.7437,37.3487c6.5474,12.3697,15.7871,22.981,22.8557,35.0146
		c1.1685,1.9893,3.4275,3.4682,4.186,5.5466c4.5991,12.6057,12.8928,23.1596,19.4709,34.6127
		c5.4536,9.4952,11.4958,18.7569,15.511,28.8684c4.4849,11.294,13.1912,19.6658,18.6831,30.3378
		c5.8374,11.3429,7.3992,23.3763,10.459,35.1773c1.6492,6.3594,3.0757,12.9586,2.7,19.7273
		c-0.1917,3.4509,1.811,6.3499,3.1406,9.3806c5.7417,13.0897,11.5195,26.1635,17.4377,39.5914
		c-6.7927,3.6527-13.8865,3.6463-20.603,5.0516c-7.9421,1.6618-8.0801,1.5963-7.8787,9.5752
		c0.4541,17.9937,1.1829,35.9842,0.134,53.9793c-0.1938,3.3248,0.0059,6.8018-0.9219,9.9276
		c-1.96,6.6014-0.7444,12.1125,2.9417,17.9359c3.9551,6.2488,5.1748,13.7501,5.4575,21.0836
		c0.2,5.1737,2.0435,9.1569,6.0313,11.9348c11.9524,8.3258,20.4341,20.0162,29.8154,30.7496
		c27.4253,31.379,53.6973,63.6978,77.7329,97.796c6.186,8.7753,10.8987,18.2529,15.6682,27.7953
		c5.3491,10.7027,10.3481,21.6809,18.2644,30.8923c2.2202,2.5834,2.4604,5.0735,0.5664,8.1417
		c-6.5073,10.5409-6.3345,12.2079,1.1401,21.629c0.8118,1.0231,1.8552,1.9848,0.5334,3.8808
		c-3.176-0.3469-4.2124-3.5185-6.2029-5.3736c-6.2324-5.8077-12.9648-4.7994-17.2441,2.6971
		c-1.5129,2.65-2.0339,5.5795-2.5056,8.5714c-1.092,6.9235-2.7993,13.6883-5.5728,20.1741
		c-12.3508,28.8807-37.2358,38.3135-62.7434,36.2351c-1.6406-0.1336-3.3154-0.4557-4.8569-1.0143
		c-1.5015-0.5441-3.4126-1.014-3.6936-2.947c-0.3711-2.5505,1.6726-3.2536,3.5547-3.9717
		c6.8425-2.6107,13.6997-5.1846,20.5171-7.8591c9.6455-3.7838,10.3213-6.0287,11.4592-16.1252
		c1.425-12.6483-2.356-24.2738-5.0906-36.1297c-1.9739-8.5586-6.1646-15.9945-12.7334-22.209
		c-6.7793-6.4135-12.4658-13.6857-16.0664-22.6111c-1.8215-4.515-5.3894-8.3746-8.4048-12.3507
		c-18.7305-24.6968-39.2595-47.9804-57.4666-73.0905c-0.5867-0.8092-1.2632-1.5563-1.8162-2.3869
		c-9.0313-13.5708-18.9736-25.9186-32.8469-35.3971c-12.2854-8.3936-19.7185-21.0014-23.4097-36.0504
		c-4.7637-19.4219-12.5103-37.93-20.5691-56.2388C3388.1924,661.7248,3387.5801,659.7551,3385.0728,658.6114z M3197.7556,312.687
		c3.283-0.1855,6.9385-0.3787,10.5925-0.6011c9.9651-0.6064,19.9319-1.1904,29.8914-1.8768c1.479-0.1019,3.6177,0.0824,3.4004-2.402
		c-0.1489-1.7039-0.9585-3.2059-2.9343-3.4427c-1.3157-0.1577-2.6563-0.1992-3.9819-0.1597
		c-6.0278,0.1794-11.8774-0.9395-17.8027-1.9117c-17.3743-2.8505-34.6567-7.0927-52.4211-6.1808
		c-23.7317,1.2181-47.0554-0.0901-70.2764-5.9733c-24.1577-6.1207-49.189-8.2764-73.2993-14.8687
		c-7.3774-2.0172-14.8311-3.7743-22.1484-5.9862c-4.0146-1.2136-5.3108,0.2843-6.0259,3.9801
		c-1.8616,9.6206,1.426,16.041,11.1575,19.3521c10.3948,3.5367,21.1379,5.8554,32.0303,7.3961
		c27.3857,3.8736,54.9172,5.6372,82.564,5.8994c9.3704,0.0889,18.5313,1.5942,27.4038,4.7761
		c6.6306,2.3779,13.5063,3.3742,20.5718,3.3855C3176.8044,314.09,3187.1072,313.7564,3197.7556,312.687z"/>
	<path d="M765.8907,221.5519c-4.315-0.2802-6.5425,2.0222-9.0933,3.3748c-16.786,8.9018-33.8107,17.3053-51.4368,24.4121
		c-10.2108,4.1169-20.5903,7.7519-31.8782,7.543c-1.9521-0.0361-3.9647,0.4783-5.8699,1.0186
		c-30.7975,8.7333-62.2631,14.1378-93.8621,18.8692c-10.2097,1.5287-20.4165,3.0327-30.7795,3.2937
		c-7.7968,0.1964-7.8086,0.4092-5.5332,8.296c2.0302,7.0368,4.0041,14.0921,6.1766,21.0852
		c6.0786,19.5662-0.3033,37.4171-7.5287,55.1316c-2.0964,5.1397-6.8073,7.309-11.7352,8.4456
		c-5.7937,1.3362-9.2919,4.6979-11.4058,10.048c-2.5844,6.5411-6.5677,12.3299-10.2139,18.2962
		c-9.1087,14.9045-14.4728,31.4192-20.3588,47.6977c-1.9954,5.5188-3.6351,11.0536-11.4052,9.746
		c-0.8373-0.1409-2.4507,0.3737-2.6414,0.9412c-2.6769,7.9719-11.369,11.9574-12.9434,20.9679
		c-1.6266,9.3092-2.5283,19.3136-10.9245,26.0577c-1.0136,0.8141-1.0129,3.0521-1.2365,4.6643
		c-2.7416,19.771-5.4504,39.5465-8.1324,59.3257c-0.4518,3.332-1.0367,6.6953-2.7701,9.5424
		c-10.3154,16.9442-16.0594,35.8086-22.9162,54.1965c-5.7122,15.3185-12.4603,30.1108-20.202,44.529
		c-4.8669,9.0641-9.0414,18.6064-12.4865,28.3036c-5.6388,15.8723-14.5064,29.772-24.2789,43.2391
		c-0.7827,1.0786-2.0045,2.0541-2.283,3.2497c-3.0283,13.0043-10.4422,23.9989-16.0846,35.8092
		c-1.4225,2.9773-2.3813,6.1339-4.245,8.9669c-2.9244,4.4451-5.5654,9.1509-5.3717,14.7299
		c0.1849,5.327-5.0161,7.8528-6.1754,11.7947c-1.0405,3.5386,1.5127,7.8171-1.4306,12.0587
		c-3.451,4.9733-8.1159,12.1609-12.5133,15.4641c-2.6346,1.9791-5.0247,3.1963-4.8824,7.5677
		c0.1892,5.8119-5.5196,8.4019-9.8248,9.5601c-3.86,1.0385-5.6546,2.8151-7.124,5.8524c-1.159,2.3958-2.8953,4.7397-3.2448,7.2632
		c-2.5549,18.4473-5.7903,36.9589,1.2641,55.1984c0.5945,1.5372,1.052,4.2604,1.8957,4.3939
		c8.9411,1.4146,6.4044,9.2645,8.6042,14.4921c2.2782,5.4142,4.8761,10.5948,6.1092,16.4843
		c0.8174,3.9041,0.269,6.2979-3.5642,6.2551c-13.6488-0.1528-27.3357,2.0303-40.9322-0.1718
		c-7.7762-1.2593-14.4771-4.8504-19.4088-11.282c-2.0265-2.6429-3.9715-5.3983-6.3193-7.7351
		c-6.1338-6.1057-6.2601-13.6024-5.5039-21.4177c0.354-3.6583,2.2893-5.8112,5.8856-4.9528
		c5.5205,1.3176,6.8355-2.1888,8.4033-6.0931c1.9058-4.7462,2.6389-9.3593,1.6271-14.555
		c-1.3726-7.0483-0.6549-13.7324,4.9621-19.4329c5.2736-5.352,5.3796-12.7012,5.5929-19.7237
		c0.2021-6.653,0.7543-13.407-5.6023-18.2252c-1.7431-1.3214-2.6528-3.7422-4.173-5.9968
		c-12.6112,11.1109-22.2407,24.1956-30.3474,38.4243c-1.5942,2.798-1.8824,6.3475-2.7307,9.5616
		c-1.2728,4.8218-1.5387,10.2216-3.9639,14.3615c-4.8609,8.2977-4.9896,15.7759,0.2352,23.7756
		c1.2892,1.9739,2.1093,4.3572,4.4128,5.0728c3.7596,1.168,4.6422,4.1317,5.971,7.2883c3.1651,7.5187,2.0067,11.0681-5.9237,12.6058
		c-10.7773,2.0898-21.6747,3.9418-32.7563,2.8438c-10.7957-1.0696-20.8351-3.9094-29.2286-11.4461
		c-4.682-4.2042-9.7095-8.1174-15.627-10.6701c-3.4764-1.4996-5.9698-4.2273-7.7362-7.5457
		c-3.3096-6.2173-1.9753-10.5903,3.9897-14.1962c7.5724-4.5778,15.1226-6.7884,23.2152-1.106
		c1.8744,1.3162,4.2028,1.9858,6.628,3.0923c3.3162-1.6829,3.3436-5.9202,6.0839-8.4186c5.131-4.6783,5.1982-6.7551,0.1013-11.4075
		c-5.0393-4.5998-7.2047-10.0682-8.5568-16.4095c-1.6531-7.7531,0.2278-13.6995,7.1488-17.9972
		c11.1133-6.9011,20.4977-15.6437,29.2639-25.4513c11.0452-12.3574,19.6853-25.9613,26.2715-41.0104
		c1.9221-4.3917,3.1349-8.4724,2.8047-13.9213c-0.4788-7.8994,4.9946-14.7997,11.3264-20.0963
		c1.4887-1.2453,4.4709-1.1301,4.7265-3.2898c1.1031-9.3185,9.7239-12.6566,14.6437-18.9037
		c1.0223-1.2981,2.3702-2.3639,2.8046-4.0069c1.3582-5.1371,4.2991-8.7043,9.3175-10.823c2.8041-1.1838,4.0109-4.2463,5.8431-6.6032
		c5.8991-7.5886,11.9399-15.3026,20.7513-19.6795c4.8841-2.4261,5.3907-6.6498,5.8086-10.7576
		c0.9432-9.2719,1.7101-18.6062,1.7416-27.9179c0.1006-29.6785-2.0178-59.2665-4.3003-88.8397
		c-1.5622-20.2405-4.1654-40.3865-1.3436-60.8113c3.9572-28.6427,13.6207-54.1367,36.3746-73.3777
		c7.8447-6.6335,14.3918-14.8156,24.2508-18.9828c2.2708-0.9598,3.9733-3.4851,5.6876-5.5023
		c8.1765-9.6209,17.2451-18.6848,24.0302-29.2138c4.2395-6.5786,10.3811-12.9783,10.309-21.8873
		c-0.0079-0.9741,0.0416-2.131,0.536-2.8998c8.9285-13.8835,9.0113-30.0276,11.4675-45.5095
		c0.8874-5.5932,1.2246-11.0042,4.3566-16.1042c3.3364-5.4328,3.5455-12.0684,5.0343-18.1935
		c2.8311-11.6469,5.509-23.3324,8.116-35.0318c1.6403-7.3611,4.8661-13.7551,10.4235-18.9397
		c8.3461-7.7861,14.3802-17.4527,21.4022-26.3199c2.3917-3.0202,2.4929-4.8967-0.7845-7.2387
		c-4.2595-3.0439-8.3593-4.9415-13.8845-3.356c-4.7543,1.3643-9.785,2.1413-14.8302,1.5144
		c-6.9373-0.8621-9.1547-3.4839-9.2131-10.537c-0.0444-5.3634,3.6102-10.8098-0.3532-16.1272
		c-0.2239-0.3004,0.1978-1.3325,0.587-1.8018c5.5812-6.7298,2.5801-12.0855-1.2571-18.7947
		c-8.0062-13.9982-4.8819-28.2479,2.5255-41.7689c0.9478-1.7301,2.5461-3.0904,3.649-4.7508
		c14.6735-22.0898,36.0413-27.7409,60.8955-24.864c2.3141,0.2679,4.62,0.847,6.9314,0.8559
		c8.7776,0.0339,14.1646,4.5079,17.4517,12.377c1.931,4.6227,4.9956,8.6456,8.2507,12.4598
		c1.5107,1.7701,3.6129,3.3135,3.6831,5.7796c0.1744,6.1303,3.8316,9.2406,8.681,12.2874
		c7.1687,4.5039,8.9141,12.0981,8.902,20.0609c-0.0189,12.5004,5.5795,23.0374,11.3856,33.5276
		c1.6864,3.047,3.7875,4.8087,7.787,4.5041c7.9906-0.6086,15.9764,0.2478,23.899,1.4609
		c17.0752,2.6144,33.3362-1.0256,48.658-7.9348c9.9749-4.498,20.1342-6.8805,30.7925-7.6553
		c23.6368-1.7183,46.9734-5.3733,70.1521-10.1898c7.5637-1.5717,14.5948-4.4872,21.5272-7.8383
		c3.9028-1.8866,5.3109-4.3888,4.797-8.6631c-0.8342-6.9392-1.2944-13.9261-1.8052-20.9007
		c-0.8473-11.57,5.3171-19.7062,13.4207-26.7888c2.5054-2.1897,5.7702-1.2351,8.6735-1.3476
		c27.6294-1.0706,55.2645-1.9894,82.8966-2.9931c31.6217-1.1487,63.2639-1.9263,94.8569-3.6189
		c37.5808-2.0134,75.1969-2.8654,112.79-4.4079c21.9423-0.9003,43.8759-2.1528,65.8444-1.4954
		c10.8246,0.324,20.9309,3.4829,30.4968,8.5894c7.6954,4.1081,13.0436,10.1636,16.4286,18.1208
		c2.1796,5.1233,2.5686,10.2776,0.7927,15.5888c-3.6697,10.9747-9.4601,20.5029-18.5892,27.8503
		c-9.3405,7.5176-18.5878,15.151-27.9064,22.696c-19.7515,15.9921-27.6456,37.0217-25.5291,61.8717
		c1.1526,13.5313,1.8854,27.1809,7.8746,39.9295c9.5809,20.3935,25.9185,33.4166,45.4254,43.1745
		c21.4486,10.729,44.5492,15.4791,68.1172,18.4341c12.5684,1.5758,25.1677,2.2043,37.8535,2.1166
		c31.9622-0.221,63.0586-5.4442,92.851-16.8739c27.0592-10.3812,51.3976-24.9934,69.486-48.6199
		c12.646-16.5176,18.6034-35.418,19.9808-55.5765c1.3979-20.4606-6.0906-37.8063-22.723-50.6944
		c-7.1515-5.5416-14.9192-10.0291-22.8394-14.2982c-7.6544-4.1259-15.0438-8.6058-21.1158-14.9559
		c-7.6721-8.0237-7.993-17.5103-0.5555-25.9023c9.5244-10.7467,20.4678-18.5054,35.6416-19.8266
		c23.9287-2.0836,47.8748-3.1256,71.8518-2.7491c27.9733,0.4393,55.9534,1.2315,83.8975,2.5619
		c42.9166,2.0432,85.801,4.7509,128.7081,7.0055c10.4476,0.549,9.4011,1.2127,9.7362,10.4476
		c1.9084,52.5793,4.0505,105.15,6.0853,157.7247c1.8293,47.2619,3.6771,94.5232,5.4,141.789
		c0.5288,14.5075-1.49,28.5622-8.5487,41.5759c-10.3962,19.1666-27.345,24.0473-46.2118,13.0832
		c-9.4021-5.4639-16.2773-13.6576-23.0138-21.9541c-6.9264-8.5305-13.5686-17.2713-21.2065-25.2361
		c-11.6853-12.185-25.8081-18.7193-42.5714-19.1411c-19.0328-0.479-37.9656-0.1077-55.6655,8.6325
		c-13.2305,6.5331-23.4503,16.2958-31.7224,28.2551c-15.345,22.1842-22.449,47.4077-26.4877,73.6418
		c-6.7513,43.856-4.0199,87.1242,10.0032,129.3029c9.9124,29.8138,24.6597,56.8617,49.8184,76.9169
		c16.9395,13.5032,36.6499,20.6815,57.9935,21.989c23.1228,1.4164,41.3464-8.6719,54.1692-27.9051
		c5.5345-8.3013,10.3452-17.0936,15.3107-25.7626c2.5138-4.3893,5.6097-8.2769,9.1422-11.8212
		c8.7642-8.7936,18.183-9.3909,27.5131-1.3644c10.9573,9.4264,18.1726,20.7778,19.5782,35.8063
		c1.5854,16.9509,2.2117,33.9009,2.3282,50.8863c0.3912,56.9968-2.3457,113.8938-5.7317,170.7651
		c-1.2668,21.2792-2.6498,42.5522-4.1287,63.8177c-0.4878,7.0156-0.7004,7.03-7.5287,7.2698
		c-2.6633,0.0936-5.3326,0.0264-7.9991,0.0264c-304.9849,0.0006-609.9696,0.0148-914.9545-0.0397
		c-15.9318-0.0029-15.1425,2.5677-14.0125-15.0479c3.1557-49.1966,6.2046-98.402,7.7474-147.6794
		c1.1988-38.2902,2.4875-76.5964,0.2108-114.8942c-0.4146-6.9725-1.2725-13.932-2.2243-20.8565
		c-1.9543-14.2178-10.7012-24.2228-21.5714-32.3506c-8.1605-6.1018-16.9172-4.8447-24.4901,2.3802
		c-6.347,6.0553-10.6166,13.6094-14.8764,21.174c-5.5546,9.8638-10.7802,19.9987-19.0236,28.0143
		c-15.5739,15.1435-34.3041,19.5336-55.3191,15.9401c-36.5549-6.2509-61.8998-27.7932-80.0814-58.931
		c-15.3437-26.2777-23.8152-54.9288-27.9799-84.8696c-5.6793-40.8311-2.7722-81.1164,9.7781-120.449
		c6.5632-20.5693,16.7125-39.2051,33.4296-53.5689c9.2557-7.9527,19.7175-13.7562,31.7765-15.9655
		c15.0981-2.7661,30.261-4.254,45.6983-2.2395c13.5021,1.7619,24.601,7.6327,34.2402,16.949
		c10.8348,10.4717,19.1928,23.0205,29.0986,34.267c7.8443,8.9058,16.756,16.1599,28.4842,19.3907
		c17.1046,4.7118,36.3379-9.2781,36.3719-27.0412c0.134-69.9963,0.0507-139.9931,0.0275-209.9897
		C766.3079,225.3809,766.0645,223.741,765.8907,221.5519z M753.8266,172.0703c-2.4211,0.9053-4.3199,1.466-6.0899,2.3002
		c-18.0961,8.5276-36.9035,15.1287-56.0027,20.9919c-8.261,2.5361-16.5427,5.1257-24.5434,8.3626
		c-13.8039,5.5847-28.1465,7.9923-42.8887,8.0565c-9.737,0.0424-19.2195,1.2234-28.5669,3.8672
		c-17.9841,5.0865-36.0645,9.4625-55.023,7.1161c-1.6696-0.2066-3.3537,0.1287-3.6406,2.4332
		c2.897,2.7469,6.6965,2.5669,10.2612,2.6388c21.629,0.4364,43.2603,0.8047,64.8926,1.0088
		c7.008,0.0661,14.154-0.4021,20.4619-3.7031c12.4676-6.5244,26.0848-7.5538,39.623-9.0548
		c24.2381-2.6873,47.9133-7.6907,70.5017-17.0911C756.3448,193.3647,758.935,187.2248,753.8266,172.0703z"/>
</g>
</svg>
